<?xml version="1.0" encoding="UTF-8"?>
<!DOCTYPE svg PUBLIC "-//W3C//DTD SVG 1.1//EN" "http://www.w3.org/Graphics/SVG/1.1/DTD/svg11.dtd">
<svg version="1.1" xmlns="http://www.w3.org/2000/svg" width="600mm" height="600mm" viewBox="0 0 600 600">
<g><g><polyline points=" 1,45 9,45 9,48 14,48 14,45 109,45 160.836,45 165.836,45 165.836,48 168.336,48 168.336,45 173.336,45 173.336,48 175.836,48 178.336,48 178.336,45 183.336,45 183.336,48 185.836,48 188.336,48 188.336,45 193.336,45 193.336,48 195.836,48 198.336,48 198.336,45 203.336,45 203.336,48 205.836,48 208.336,48 208.336,45 213.336,45 213.336,48 215.836,48 218.336,48 218.336,45 223.336,45 223.336,48 225.836,48 228.336,48 228.336,45 233.336,45 233.336,48 235.836,48 238.336,48 238.336,45 243.336,45 243.336,48 245.836,48 248.336,48 248.336,45 253.336,45 253.336,48 255.836,48 258.336,48 258.336,45 263.336,45 263.336,48 265.836,48 265.836,50.5 268.836,50.5 268.836,55.5 265.836,55.5 265.836,58 265.836,60.5 268.836,60.5 268.836,65.5 265.836,65.5 265.836,68 265.836,70.5 268.836,70.5 268.836,75.5 265.836,75.5 265.836,78 265.836,80.5 268.836,80.5 268.836,85.5 265.836,85.5 265.836,88 265.836,90.5 268.836,90.5 268.836,95.5 265.836,95.5 265.836,98 265.836,100.5 268.836,100.5 268.836,105.5 265.836,105.5 265.836,108 263.336,108 263.336,111 258.336,111 258.336,108 255.836,108 253.336,108 253.336,111 248.336,111 248.336,108 245.836,108 243.336,108 243.336,111 238.336,111 238.336,108 235.836,108 233.336,108 233.336,111 228.336,111 228.336,108 225.836,108 223.336,108 223.336,111 218.336,111 218.336,108 215.836,108 213.336,108 213.336,111 208.336,111 208.336,108 205.836,108 203.336,108 203.336,111 198.336,111 198.336,108 195.836,108 193.336,108 193.336,111 188.336,111 188.336,108 185.836,108 183.336,108 183.336,111 178.336,111 178.336,108 175.836,108 173.336,108 173.336,111 168.336,111 168.336,108 165.836,108 165.836,111 160.836,111 109,111 14,111 14,108 9,108 9,111 1,111 1,45" style="stroke:blue;fill:none;stroke-width:1"/>
<g><polyline points=" 109,48 109,76.5" style="stroke:red;fill:none;stroke-width:1"/>
<polyline points=" 109,79.5 109,108" style="stroke:red;fill:none;stroke-width:1"/>
<polyline points=" 110.5,45 110.5,60.75" style="stroke:red;fill:none;stroke-width:1"/>
<polyline points=" 110.5,63.75 110.5,92.25" style="stroke:red;fill:none;stroke-width:1"/>
<polyline points=" 110.5,95.25 110.5,111" style="stroke:red;fill:none;stroke-width:1"/>
<polyline points=" 112,48 112,76.5" style="stroke:red;fill:none;stroke-width:1"/>
<polyline points=" 112,79.5 112,108" style="stroke:red;fill:none;stroke-width:1"/>
<polyline points=" 113.5,45 113.5,60.75" style="stroke:red;fill:none;stroke-width:1"/>
<polyline points=" 113.5,63.75 113.5,92.25" style="stroke:red;fill:none;stroke-width:1"/>
<polyline points=" 113.5,95.25 113.5,111" style="stroke:red;fill:none;stroke-width:1"/>
<polyline points=" 115,48 115,76.5" style="stroke:red;fill:none;stroke-width:1"/>
<polyline points=" 115,79.5 115,108" style="stroke:red;fill:none;stroke-width:1"/>
<polyline points=" 116.5,45 116.5,60.75" style="stroke:red;fill:none;stroke-width:1"/>
<polyline points=" 116.5,63.75 116.5,92.25" style="stroke:red;fill:none;stroke-width:1"/>
<polyline points=" 116.5,95.25 116.5,111" style="stroke:red;fill:none;stroke-width:1"/>
<polyline points=" 118,48 118,76.5" style="stroke:red;fill:none;stroke-width:1"/>
<polyline points=" 118,79.5 118,108" style="stroke:red;fill:none;stroke-width:1"/>
<polyline points=" 119.5,45 119.5,60.75" style="stroke:red;fill:none;stroke-width:1"/>
<polyline points=" 119.5,63.75 119.5,92.25" style="stroke:red;fill:none;stroke-width:1"/>
<polyline points=" 119.5,95.25 119.5,111" style="stroke:red;fill:none;stroke-width:1"/>
<polyline points=" 121,48 121,76.5" style="stroke:red;fill:none;stroke-width:1"/>
<polyline points=" 121,79.5 121,108" style="stroke:red;fill:none;stroke-width:1"/>
<polyline points=" 122.5,45 122.5,60.75" style="stroke:red;fill:none;stroke-width:1"/>
<polyline points=" 122.5,63.75 122.5,92.25" style="stroke:red;fill:none;stroke-width:1"/>
<polyline points=" 122.5,95.25 122.5,111" style="stroke:red;fill:none;stroke-width:1"/>
<polyline points=" 124,48 124,76.5" style="stroke:red;fill:none;stroke-width:1"/>
<polyline points=" 124,79.5 124,108" style="stroke:red;fill:none;stroke-width:1"/>
<polyline points=" 125.5,45 125.5,60.75" style="stroke:red;fill:none;stroke-width:1"/>
<polyline points=" 125.5,63.75 125.5,92.25" style="stroke:red;fill:none;stroke-width:1"/>
<polyline points=" 125.5,95.25 125.5,111" style="stroke:red;fill:none;stroke-width:1"/>
<polyline points=" 127,48 127,76.5" style="stroke:red;fill:none;stroke-width:1"/>
<polyline points=" 127,79.5 127,108" style="stroke:red;fill:none;stroke-width:1"/>
<polyline points=" 128.5,45 128.5,60.75" style="stroke:red;fill:none;stroke-width:1"/>
<polyline points=" 128.5,63.75 128.5,92.25" style="stroke:red;fill:none;stroke-width:1"/>
<polyline points=" 128.5,95.25 128.5,111" style="stroke:red;fill:none;stroke-width:1"/>
<polyline points=" 130,48 130,76.5" style="stroke:red;fill:none;stroke-width:1"/>
<polyline points=" 130,79.5 130,108" style="stroke:red;fill:none;stroke-width:1"/>
<polyline points=" 131.5,45 131.5,60.75" style="stroke:red;fill:none;stroke-width:1"/>
<polyline points=" 131.5,63.75 131.5,92.25" style="stroke:red;fill:none;stroke-width:1"/>
<polyline points=" 131.5,95.25 131.5,111" style="stroke:red;fill:none;stroke-width:1"/>
<polyline points=" 133,48 133,76.5" style="stroke:red;fill:none;stroke-width:1"/>
<polyline points=" 133,79.5 133,108" style="stroke:red;fill:none;stroke-width:1"/>
<polyline points=" 134.5,45 134.5,60.75" style="stroke:red;fill:none;stroke-width:1"/>
<polyline points=" 134.5,63.75 134.5,92.25" style="stroke:red;fill:none;stroke-width:1"/>
<polyline points=" 134.5,95.25 134.5,111" style="stroke:red;fill:none;stroke-width:1"/>
<polyline points=" 136,48 136,76.5" style="stroke:red;fill:none;stroke-width:1"/>
<polyline points=" 136,79.5 136,108" style="stroke:red;fill:none;stroke-width:1"/>
<polyline points=" 137.5,45 137.5,60.75" style="stroke:red;fill:none;stroke-width:1"/>
<polyline points=" 137.5,63.75 137.5,92.25" style="stroke:red;fill:none;stroke-width:1"/>
<polyline points=" 137.5,95.25 137.5,111" style="stroke:red;fill:none;stroke-width:1"/>
<polyline points=" 139,48 139,76.5" style="stroke:red;fill:none;stroke-width:1"/>
<polyline points=" 139,79.5 139,108" style="stroke:red;fill:none;stroke-width:1"/>
<polyline points=" 140.5,45 140.5,60.75" style="stroke:red;fill:none;stroke-width:1"/>
<polyline points=" 140.5,63.75 140.5,92.25" style="stroke:red;fill:none;stroke-width:1"/>
<polyline points=" 140.5,95.25 140.5,111" style="stroke:red;fill:none;stroke-width:1"/>
<polyline points=" 142,48 142,76.5" style="stroke:red;fill:none;stroke-width:1"/>
<polyline points=" 142,79.5 142,108" style="stroke:red;fill:none;stroke-width:1"/>
<polyline points=" 143.5,45 143.5,60.75" style="stroke:red;fill:none;stroke-width:1"/>
<polyline points=" 143.5,63.75 143.5,92.25" style="stroke:red;fill:none;stroke-width:1"/>
<polyline points=" 143.5,95.25 143.5,111" style="stroke:red;fill:none;stroke-width:1"/>
<polyline points=" 145,48 145,76.5" style="stroke:red;fill:none;stroke-width:1"/>
<polyline points=" 145,79.5 145,108" style="stroke:red;fill:none;stroke-width:1"/>
<polyline points=" 146.5,45 146.5,60.75" style="stroke:red;fill:none;stroke-width:1"/>
<polyline points=" 146.5,63.75 146.5,92.25" style="stroke:red;fill:none;stroke-width:1"/>
<polyline points=" 146.5,95.25 146.5,111" style="stroke:red;fill:none;stroke-width:1"/>
<polyline points=" 148,48 148,76.5" style="stroke:red;fill:none;stroke-width:1"/>
<polyline points=" 148,79.5 148,108" style="stroke:red;fill:none;stroke-width:1"/>
<polyline points=" 149.5,45 149.5,60.75" style="stroke:red;fill:none;stroke-width:1"/>
<polyline points=" 149.5,63.75 149.5,92.25" style="stroke:red;fill:none;stroke-width:1"/>
<polyline points=" 149.5,95.25 149.5,111" style="stroke:red;fill:none;stroke-width:1"/>
<polyline points=" 151,48 151,76.5" style="stroke:red;fill:none;stroke-width:1"/>
<polyline points=" 151,79.5 151,108" style="stroke:red;fill:none;stroke-width:1"/>
<polyline points=" 152.5,45 152.5,60.75" style="stroke:red;fill:none;stroke-width:1"/>
<polyline points=" 152.5,63.75 152.5,92.25" style="stroke:red;fill:none;stroke-width:1"/>
<polyline points=" 152.5,95.25 152.5,111" style="stroke:red;fill:none;stroke-width:1"/>
<polyline points=" 154,48 154,76.5" style="stroke:red;fill:none;stroke-width:1"/>
<polyline points=" 154,79.5 154,108" style="stroke:red;fill:none;stroke-width:1"/>
<polyline points=" 155.5,45 155.5,60.75" style="stroke:red;fill:none;stroke-width:1"/>
<polyline points=" 155.5,63.75 155.5,92.25" style="stroke:red;fill:none;stroke-width:1"/>
<polyline points=" 155.5,95.25 155.5,111" style="stroke:red;fill:none;stroke-width:1"/>
<polyline points=" 157,48 157,76.5" style="stroke:red;fill:none;stroke-width:1"/>
<polyline points=" 157,79.5 157,108" style="stroke:red;fill:none;stroke-width:1"/>
<polyline points=" 158.5,45 158.5,60.75" style="stroke:red;fill:none;stroke-width:1"/>
<polyline points=" 158.5,63.75 158.5,92.25" style="stroke:red;fill:none;stroke-width:1"/>
<polyline points=" 158.5,95.25 158.5,111" style="stroke:red;fill:none;stroke-width:1"/>
<polyline points=" 160,48 160,76.5" style="stroke:red;fill:none;stroke-width:1"/>
<polyline points=" 160,79.5 160,108" style="stroke:red;fill:none;stroke-width:1"/>
</g></g><polyline points=" 285,48 287.5,48 287.5,45 292.5,45 292.5,48 295,48 297.5,48 297.5,45 302.5,45 302.5,48 305,48 307.5,48 307.5,45 312.5,45 312.5,48 315,48 318,48 318,50.5 318,55.5 318,58 318,60.5 318,65.5 318,68 318,70.5 318,75.5 318,78 318,80.5 318,85.5 318,88 318,90.5 318,95.5 318,98 318,100.5 318,105.5 318,108 318,111 315,111 312.5,111 312.5,108 307.5,108 307.5,111 305,111 302.5,111 302.5,108 297.5,108 297.5,111 295,111 292.5,111 292.5,108 287.5,108 287.5,111 285,111 282,111 282,108 282,105.5 285,105.5 285,100.5 282,100.5 282,98 282,95.5 285,95.5 285,90.5 282,90.5 282,88 282,85.5 285,85.5 285,80.5 282,80.5 282,78 282,75.5 285,75.5 285,70.5 282,70.5 282,68 282,65.5 285,65.5 285,60.5 282,60.5 282,58 282,55.5 285,55.5 285,50.5 282,50.5 282,48 285,48" style="stroke:blue;fill:none;stroke-width:1"/>
<polyline points=" 153.8,3 158.8,3 248.8,3 248.8,0 253.8,0 253.8,3 258.8,3 261.8,3 261.8,6 261.8,8.5 258.8,8.5 258.8,13.5 261.8,13.5 261.8,16 261.8,18.5 258.8,18.5 258.8,23.5 261.8,23.5 261.8,26 261.8,28.5 258.8,28.5 258.8,33.5 261.8,33.5 261.8,36 261.8,39 258.8,39 256.3,39 256.3,36 251.3,36 251.3,39 248.8,39 246.3,39 246.3,36 241.3,36 241.3,39 238.8,39 236.3,39 236.3,36 231.3,36 231.3,39 228.8,39 226.3,39 226.3,36 221.3,36 221.3,39 218.8,39 216.3,39 216.3,36 211.3,36 211.3,39 208.8,39 206.3,39 206.3,36 201.3,36 201.3,39 198.8,39 196.3,39 196.3,36 191.3,36 191.3,39 188.8,39 186.3,39 186.3,36 181.3,36 181.3,39 178.8,39 176.3,39 176.3,36 171.3,36 171.3,39 168.8,39 166.3,39 166.3,36 161.3,36 161.3,39 158.8,39 158.8,36 153.8,36 153.8,36 153.635,35.999 153.47,35.996 153.305,35.992 153.14,35.986 152.975,35.979 152.81,35.97 152.645,35.959 152.481,35.947 152.317,35.933 152.152,35.917 151.988,35.9 151.824,35.881 151.661,35.86 151.497,35.838 151.334,35.814 151.171,35.789 151.008,35.762 150.846,35.733 150.683,35.703 150.521,35.671 150.36,35.637 150.199,35.602 150.038,35.565 149.877,35.527 149.717,35.487 149.558,35.445 149.398,35.402 149.24,35.357 149.081,35.311 148.923,35.263 148.766,35.213 148.609,35.162 148.453,35.109 148.297,35.055 148.142,34.999 147.987,34.942 147.833,34.883 147.679,34.822 147.526,34.76 147.374,34.697 147.222,34.632 147.071,34.565 146.921,34.497 146.771,34.428 146.623,34.357 146.474,34.284 146.327,34.21 146.18,34.135 146.034,34.058 145.889,33.98 145.745,33.9 145.601,33.819 145.458,33.736 145.316,33.652 145.175,33.566 145.035,33.479 144.896,33.391 144.757,33.301 144.62,33.21 144.483,33.118 144.347,33.024 144.212,32.928 144.079,32.832 143.946,32.734 143.814,32.635 143.683,32.534 143.553,32.433 143.424,32.329 143.297,32.225 143.17,32.119 143.044,32.012 142.92,31.904 142.796,31.795 142.674,31.684 142.552,31.572 142.432,31.459 142.313,31.345 142.195,31.23 142.079,31.113 141.963,30.995 141.849,30.876 141.736,30.756 141.624,30.635 141.513,30.513 141.403,30.389 141.295,30.265 141.188,30.139 141.082,30.012 140.978,29.885 140.875,29.756 140.773,29.626 140.672,29.496 140.573,29.364 140.475,29.231 140.378,29.097 140.283,28.963 140.189,28.827 140.096,28.69 140.005,28.553 139.915,28.414 139.827,28.275 139.74,28.135 139.654,27.994 139.57,27.852 139.487,27.709 139.406,27.566 139.326,27.422 139.247,27.276 139.17,27.131 139.095,26.984 139.02,26.836 138.948,26.688 138.877,26.539 138.807,26.39 138.739,26.24 138.672,26.089 138.607,25.937 138.544,25.785 138.481,25.632 138.421,25.478 138.362,25.324 138.304,25.17 138.248,25.014 138.194,24.859 138.141,24.702 138.09,24.545 138.04,24.388 137.992,24.23 137.946,24.072 137.901,23.913 137.857,23.754 137.816,23.594 137.776,23.434 137.737,23.274 137.7,23.113 137.665,22.952 137.631,22.79 137.599,22.629 137.568,22.466 137.54,22.304 137.512,22.141 137.487,21.978 137.463,21.815 137.44,21.651 137.42,21.488 137.401,21.324 137.383,21.16 137.367,20.996 137.353,20.831 137.341,20.667 137.33,20.502 137.321,20.337 137.313,20.172 137.307,20.008 137.303,19.843 137.3,19.678 137.3,19.513 137.3,19.348 137.303,19.183 137.307,19.018 137.312,18.853 137.319,18.688 137.328,18.523 137.339,18.359 137.351,18.194 137.365,18.03 137.381,17.865 137.398,17.701 137.417,17.537 137.437,17.374 137.459,17.21 137.483,17.047 137.508,16.884 137.535,16.721 137.564,16.558 137.594,16.396 137.626,16.234 137.659,16.073 137.694,15.912 137.731,15.751 137.769,15.59 137.809,15.43 137.851,15.27 137.894,15.111 137.938,14.952 137.985,14.794 138.033,14.636 138.082,14.479 138.133,14.322 138.186,14.165 138.24,14.009 138.295,13.854 138.353,13.699 138.411,13.545 138.472,13.392 138.534,13.239 138.597,13.086 138.662,12.934 138.728,12.783 138.796,12.633 138.866,12.483 138.936,12.334 139.009,12.186 139.083,12.039 139.158,11.892 139.235,11.746 139.313,11.601 139.393,11.456 139.474,11.312 139.557,11.17 139.641,11.028 139.726,10.886 139.813,10.746 139.901,10.607 139.991,10.468 140.082,10.33 140.174,10.194 140.268,10.058 140.363,9.923 140.459,9.789 140.557,9.656 140.656,9.524 140.757,9.393 140.858,9.264 140.961,9.135 141.066,9.007 141.171,8.88 141.278,8.754 141.386,8.63 141.495,8.506 141.606,8.383 141.718,8.262 141.831,8.142 141.945,8.023 142.06,7.905 142.177,7.788 142.294,7.672 142.413,7.558 142.533,7.445 142.654,7.333 142.777,7.222 142.9,7.112 143.024,7.004 143.15,6.897 143.276,6.791 143.404,6.686 143.533,6.583 143.662,6.481 143.793,6.38 143.925,6.281 144.057,6.183 144.191,6.086 144.326,5.99 144.461,5.896 144.598,5.804 144.735,5.712 144.873,5.622 145.013,5.534 145.153,5.447 145.294,5.361 145.436,5.276 145.578,5.194 145.722,5.112 145.866,5.032 146.011,4.953 146.157,4.876 146.303,4.801 146.451,4.726 146.599,4.654 146.748,4.582 146.897,4.513 147.047,4.444 147.198,4.378 147.35,4.312 147.502,4.249 147.655,4.186 147.808,4.126 147.962,4.066 148.117,4.009 148.272,3.953 148.428,3.898 148.584,3.845 148.741,3.794 148.898,3.744 149.056,3.696 149.214,3.649 149.373,3.604 149.532,3.561 149.692,3.519 149.852,3.479 150.012,3.44 150.173,3.403 150.334,3.367 150.496,3.334 150.658,3.301 150.82,3.271 150.982,3.242 151.145,3.214 151.308,3.189 151.471,3.165 151.634,3.142 151.798,3.121 151.962,3.102 152.126,3.085 152.29,3.069 152.455,3.054 152.619,3.042 152.784,3.031 152.949,3.021 153.113,3.014 153.278,3.008 153.443,3.003 153.608,3.001 153.773,3" style="stroke:blue;fill:none;stroke-width:1"/>
<polyline points=" 153.8,117 156.3,117 156.3,120 161.3,120 161.3,117 163.8,117 166.3,117 166.3,120 171.3,120 171.3,117 173.8,117 176.3,117 176.3,120 181.3,120 181.3,117 183.8,117 186.3,117 186.3,120 191.3,120 191.3,117 193.8,117 196.3,117 196.3,120 201.3,120 201.3,117 203.8,117 206.3,117 206.3,120 211.3,120 211.3,117 213.8,117 216.3,117 216.3,120 221.3,120 221.3,117 223.8,117 226.3,117 226.3,120 231.3,120 231.3,117 233.8,117 236.3,117 236.3,120 241.3,120 241.3,117 243.8,117 246.3,117 246.3,120 251.3,120 251.3,117 253.8,117 253.8,120 253.8,122.5 256.8,122.5 256.8,127.5 253.8,127.5 253.8,130 253.8,132.5 256.8,132.5 256.8,137.5 253.8,137.5 253.8,140 253.8,142.5 256.8,142.5 256.8,147.5 253.8,147.5 253.8,150 253.8,153 248.8,153 248.8,156 243.8,156 243.8,153 153.8,153 148.8,153 148.8,153 148.635,152.999 148.47,152.996 148.305,152.992 148.14,152.986 147.975,152.979 147.81,152.97 147.645,152.959 147.481,152.947 147.317,152.933 147.152,152.917 146.988,152.9 146.824,152.881 146.661,152.86 146.497,152.838 146.334,152.814 146.171,152.789 146.008,152.762 145.846,152.733 145.683,152.703 145.521,152.671 145.36,152.637 145.199,152.602 145.038,152.565 144.877,152.527 144.717,152.487 144.558,152.445 144.398,152.402 144.24,152.357 144.081,152.311 143.923,152.263 143.766,152.213 143.609,152.162 143.453,152.109 143.297,152.055 143.142,151.999 142.987,151.942 142.833,151.883 142.679,151.822 142.526,151.76 142.374,151.697 142.222,151.632 142.071,151.565 141.921,151.497 141.771,151.428 141.623,151.357 141.474,151.284 141.327,151.21 141.18,151.135 141.034,151.058 140.889,150.98 140.745,150.9 140.601,150.819 140.458,150.736 140.316,150.652 140.175,150.566 140.035,150.479 139.896,150.391 139.757,150.301 139.62,150.21 139.483,150.118 139.347,150.024 139.212,149.928 139.079,149.832 138.946,149.734 138.814,149.635 138.683,149.534 138.553,149.433 138.424,149.329 138.297,149.225 138.17,149.119 138.044,149.012 137.92,148.904 137.796,148.795 137.674,148.684 137.552,148.572 137.432,148.459 137.313,148.345 137.195,148.23 137.079,148.113 136.963,147.995 136.849,147.876 136.736,147.756 136.624,147.635 136.513,147.513 136.403,147.389 136.295,147.265 136.188,147.139 136.082,147.012 135.978,146.885 135.875,146.756 135.773,146.626 135.672,146.496 135.573,146.364 135.475,146.231 135.378,146.097 135.283,145.963 135.189,145.827 135.096,145.69 135.005,145.553 134.915,145.414 134.827,145.275 134.74,145.135 134.654,144.994 134.57,144.852 134.487,144.709 134.406,144.566 134.326,144.422 134.247,144.276 134.17,144.131 134.095,143.984 134.02,143.836 133.948,143.688 133.877,143.539 133.807,143.39 133.739,143.24 133.672,143.089 133.607,142.937 133.544,142.785 133.481,142.632 133.421,142.478 133.362,142.324 133.304,142.17 133.248,142.014 133.194,141.859 133.141,141.702 133.09,141.545 133.04,141.388 132.992,141.23 132.946,141.072 132.901,140.913 132.857,140.754 132.816,140.594 132.776,140.434 132.737,140.274 132.7,140.113 132.665,139.952 132.631,139.79 132.599,139.629 132.568,139.466 132.54,139.304 132.512,139.141 132.487,138.978 132.463,138.815 132.44,138.651 132.42,138.488 132.401,138.324 132.383,138.16 132.367,137.996 132.353,137.831 132.341,137.667 132.33,137.502 132.321,137.337 132.313,137.172 132.307,137.008 132.303,136.843 132.3,136.678 132.3,136.513 132.3,136.348 132.303,136.183 132.307,136.018 132.312,135.853 132.319,135.688 132.328,135.523 132.339,135.359 132.351,135.194 132.365,135.03 132.381,134.865 132.398,134.701 132.417,134.537 132.437,134.374 132.459,134.21 132.483,134.047 132.508,133.884 132.535,133.721 132.564,133.558 132.594,133.396 132.626,133.234 132.659,133.073 132.694,132.912 132.731,132.751 132.769,132.59 132.809,132.43 132.851,132.27 132.894,132.111 132.938,131.952 132.985,131.794 133.033,131.636 133.082,131.479 133.133,131.322 133.186,131.165 133.24,131.009 133.295,130.854 133.353,130.699 133.411,130.545 133.472,130.392 133.534,130.239 133.597,130.086 133.662,129.934 133.728,129.783 133.796,129.633 133.866,129.483 133.936,129.334 134.009,129.186 134.083,129.039 134.158,128.892 134.235,128.746 134.313,128.601 134.393,128.456 134.474,128.312 134.557,128.17 134.641,128.028 134.726,127.886 134.813,127.746 134.901,127.607 134.991,127.468 135.082,127.33 135.174,127.194 135.268,127.058 135.363,126.923 135.459,126.789 135.557,126.656 135.656,126.524 135.757,126.393 135.858,126.264 135.961,126.135 136.066,126.007 136.171,125.88 136.278,125.754 136.386,125.63 136.495,125.506 136.606,125.383 136.718,125.262 136.831,125.142 136.945,125.023 137.06,124.905 137.177,124.788 137.294,124.672 137.413,124.558 137.533,124.445 137.654,124.333 137.777,124.222 137.9,124.112 138.024,124.004 138.15,123.897 138.276,123.791 138.404,123.686 138.533,123.583 138.662,123.481 138.793,123.38 138.925,123.281 139.057,123.183 139.191,123.086 139.326,122.99 139.461,122.896 139.598,122.804 139.735,122.712 139.873,122.622 140.013,122.534 140.153,122.447 140.294,122.361 140.436,122.276 140.578,122.194 140.722,122.112 140.866,122.032 141.011,121.953 141.157,121.876 141.303,121.801 141.451,121.726 141.599,121.654 141.748,121.582 141.897,121.513 142.047,121.444 142.198,121.378 142.35,121.312 142.502,121.249 142.655,121.186 142.808,121.126 142.962,121.066 143.117,121.009 143.272,120.953 143.428,120.898 143.584,120.845 143.741,120.794 143.898,120.744 144.056,120.696 144.214,120.649 144.373,120.604 144.532,120.561 144.692,120.519 144.852,120.479 145.012,120.44 145.173,120.403 145.334,120.367 145.496,120.334 145.658,120.301 145.82,120.271 145.982,120.242 146.145,120.214 146.308,120.189 146.471,120.165 146.634,120.142 146.798,120.121 146.962,120.102 147.126,120.085 147.29,120.069 147.455,120.054 147.619,120.042 147.784,120.031 147.949,120.021 148.113,120.014 148.278,120.008 148.443,120.003 148.608,120.001 148.773,120 153.773,120 153.773,117" style="stroke:blue;fill:none;stroke-width:1"/>
</g><text x="1" y="50" style="font-size:8;font-family:Arial;stroke:black;stroke-width:1;fill:none">simplebox-type3.svg created at 26 Nov 2011 with Boxdesigner from: http://www.frag-den-spatz.de</text></svg>